<?xml version="1.0" standalone="no"?><!DOCTYPE svg PUBLIC "-//W3C//DTD SVG 1.1//EN" "http://www.w3.org/Graphics/SVG/1.1/DTD/svg11.dtd"><svg t="1711790249189" class="icon" viewBox="0 0 1024 1024" version="1.1" xmlns="http://www.w3.org/2000/svg" p-id="1708" width="32" height="32" xmlns:xlink="http://www.w3.org/1999/xlink"><path d="M826.4 197.6c-33.8-33.8-88.5-33.8-122.3 0L576.6 325.1l-29.7-29.7c-17.4-17.4-45.5-17.4-62.9 0l-31.4 31.4c-17.4 17.4-17.4 45.5 0 62.9l29.7 29.7-284.7 284.7c-33.8 33.8-33.8 88.5 0 122.3s88.5 33.8 122.3 0l284.7-284.7 29.7 29.7c17.4 17.4 45.5 17.4 62.9 0l31.4-31.4c17.4-17.4 17.4-45.5 0-62.9l-29.7-29.7 127.5-127.5c33.8-33.8 33.8-88.5 0-122.3zM288.4 795c-16.3 16.4-43 16.4-59.4 0-7.9-7.9-12.3-18.5-12.3-29.7s4.3-21.8 12.3-29.7l284.7-284.7 59.4 59.4L288.4 795z" fill="#383838" p-id="1709"></path></svg>