<?xml version="1.0" standalone="no"?><!DOCTYPE svg PUBLIC "-//W3C//DTD SVG 1.1//EN" "http://www.w3.org/Graphics/SVG/1.1/DTD/svg11.dtd"><svg t="1711952413007" class="icon" viewBox="0 0 1024 1024" version="1.1" xmlns="http://www.w3.org/2000/svg" p-id="2655" xmlns:xlink="http://www.w3.org/1999/xlink" width="32" height="32"><path d="M658.329527 402.252855h292.607854a73.011163 73.011163 0 0 1 73.164763 73.164763v475.417363A73.011163 73.011163 0 0 1 950.962981 1023.999744H475.392018a73.011163 73.011163 0 0 1-73.164763-73.164763v-292.607854h146.329527a109.567945 109.567945 0 0 0 109.747145-109.772745v-146.175927zM0.000256 73.165019A73.011163 73.011163 0 0 1 73.165019 0.000256h475.391763a73.011163 73.011163 0 0 1 73.190363 73.164763v475.391763a73.011163 73.011163 0 0 1-73.164763 73.190363H73.165019A73.011163 73.011163 0 0 1 0.000256 548.582382V73.165019zM146.329783 388.864062H199.680156v-28.339186h77.055962v135.219132h56.575971v-135.219132h78.643161v23.551988h58.188771V204.928154h-136.959932V165.632173c0-11.519994 1.612799-21.503989 4.812798-29.823985a11.775994 11.775994 0 0 0 1.484799-4.812797c0-1.023999-3.660798-2.047999-10.982394-3.071999h-53.503973v76.927962H146.329783v184.038308zM199.680156 248.960132h77.055962v69.171165H199.782556l-0.1024-69.171165z m212.147094 69.171165h-78.643161V249.088131h78.643161v69.043166z m232.959884 557.721321l22.067189-61.260769h114.790342l22.041589 61.260769h62.873569L764.415874 585.164763h-73.830363l-105.395148 290.687855h59.647971z m37.734381-109.977545L724.735894 642.559935c0.1024-0.4608 0.5632-0.6656 1.023999-0.6656 0.4608 0 0.9216 0.3328 1.024 0.768l39.09118 123.366338h-83.327958v-0.128z m-413.106994 149.196725a267.059066 267.059066 0 0 1-168.499115-143.923128 42.649579 42.649579 0 0 0-77.286362 36.095982 352.793424 352.793424 0 0 0 222.335889 189.772705 42.803179 42.803179 0 0 0 52.812774-29.388785c6.399997-22.502389-6.732797-46.054377-29.363186-52.556774z m484.351758-786.687606a267.059066 267.059066 0 0 1 168.447916 143.897528 42.700779 42.700779 0 0 0 56.729572 20.58239 42.649579 42.649579 0 0 0 20.556789-56.703972 352.793424 352.793424 0 0 0-222.335889-189.747105 42.521579 42.521579 0 0 0-52.684773 29.363185c-6.527997 22.527989 6.502397 46.079977 29.260785 52.607974z" p-id="2656"></path></svg>